<svg width="22" height="23" viewBox="0 0 22 23" fill="none" xmlns="http://www.w3.org/2000/svg">
<path d="M7.33398 7.85547H9.16732V17.284H7.33398V7.85547Z" fill="#023E7D"/>
<path d="M12.834 7.85547H14.6673V17.284H12.834V7.85547Z" fill="#023E7D"/>
<path d="M0 3.14453V4.71596H1.83333V20.4302C1.83333 20.847 2.02649 21.2467 2.3703 21.5414C2.71412 21.8361 3.18044 22.0017 3.66667 22.0017H18.3333C18.8196 22.0017 19.2859 21.8361 19.6297 21.5414C19.9735 21.2467 20.1667 20.847 20.1667 20.4302V4.71596H22V3.14453H0ZM3.66667 20.4302V4.71596H18.3333V20.4302H3.66667Z" fill="#023E7D"/>
<path d="M7.33398 0H14.6673V1.57143H7.33398V0Z" fill="#023E7D"/>
</svg>
