<svg width="27" height="27" viewBox="0 0 27 27" fill="none" xmlns="http://www.w3.org/2000/svg">
<path d="M7.7876 18.5297L13.5823 18.5106L26.23 6.34857C26.7263 5.86668 26.9995 5.22671 26.9995 4.54594C26.9995 3.86517 26.7263 3.2252 26.23 2.74331L24.1474 0.721403C23.1547 -0.24238 21.4227 -0.237281 20.4379 0.717579L7.7876 12.8822V18.5297ZM22.2907 2.52403L24.3772 4.54211L22.2802 6.55892L20.1976 4.53829L22.2907 2.52403ZM10.4138 13.9454L18.3317 6.33072L20.4143 8.35263L12.4977 15.9647L10.4138 15.9711V13.9454Z" fill="#023E7D"/>
<path d="M2.36542 27.0008H18.9234C20.2279 27.0008 21.2888 25.8664 21.2888 24.4714V13.5087L18.9234 16.0382V24.4714H6.10043C6.06968 24.4714 6.03774 24.484 6.00699 24.484C5.96796 24.484 5.92893 24.4726 5.88872 24.4714H2.36542V6.76519H10.4635L12.8289 4.23573H2.36542C1.06089 4.23573 0 5.37019 0 6.76519V24.4714C0 25.8664 1.06089 27.0008 2.36542 27.0008Z" fill="#023E7D"/>
</svg>
